<svg xmlns:xlink="http://www.w3.org/1999/xlink" xmlns="http://www.w3.org/2000/svg" version="1.1" viewBox="0 0 120 120" height="120px" width="120px">
    <title>图表内容为空</title>
    <defs>
        <rect height="120" width="120" y="0" x="0" id="path-1"></rect>
        <linearGradient id="linearGradient-3" y2="3.44169138e-13%" x2="50%" y1="100%" x1="49.9999926%">
            <stop offset="0%" stop-opacity="0" stop-color="#FFFFFF"></stop>
            <stop offset="41%" stop-opacity="0.14" stop-color="#FBFBFC"></stop>
            <stop offset="66%" stop-opacity="0.48" stop-color="#F0F1F3"></stop>
            <stop offset="100%" stop-color="#DFE1E6"></stop>
        </linearGradient>
        <linearGradient id="linearGradient-4" y2="100%" x2="50%" y1="0%" x1="50%">
            <stop offset="27%" stop-color="#E9EBF0"></stop>
            <stop offset="89%" stop-color="#D1D3D8"></stop>
            <stop offset="100%" stop-color="#C4C6CC"></stop>
        </linearGradient>
        <linearGradient id="linearGradient-5" y2="92.9301912%" x2="91.2645595%" y1="7.0698088%" x1="8.73544052%">
            <stop offset="27%" stop-color="#DFE1E6"></stop>
            <stop offset="89%" stop-color="#D1D3D8"></stop>
            <stop offset="100%" stop-color="#C4C6CC"></stop>
        </linearGradient>
        <linearGradient id="linearGradient-6" y2="100.106952%" x2="50%" y1="0.106951872%" x1="50%">
            <stop offset="27%" stop-color="#E9EBF0"></stop>
            <stop offset="89%" stop-color="#D1D3D8"></stop>
            <stop offset="100%" stop-color="#C4C6CC"></stop>
        </linearGradient>
        <linearGradient id="linearGradient-7" y2="100%" x2="49.9767981%" y1="0%" x1="49.9767981%">
            <stop offset="0%" stop-color="#FDB65B"></stop>
            <stop offset="100%" stop-color="#FD9357"></stop>
        </linearGradient>
    </defs>
    <g fill-rule="evenodd" fill="none" stroke-width="1" stroke="none" id="图表内容为空">
        <g id="分组-copy">
            <mask fill="white" id="mask-2">
                <use xlink:href="#path-1"></use>
            </mask>
            <g fill-rule="nonzero" id="Mask"></g>
            <g mask="url(#mask-2)" id="分组-21-copy">
                <ellipse ry="22" rx="60" cy="116" cx="60" fill-rule="nonzero" fill="url(#linearGradient-3)" id="椭圆形"></ellipse>
                <g transform="translate(14.000000, 0.000000)" id="分组-42">
                    <path stroke-dasharray="2.467444635206653" stroke-width="0.622001654" stroke="#B3B3B3" id="路径" d="M80.2587196,85.0396124 C80.2587196,85.0396124 95.917313,79.7027073 95.917313,65.784896 C95.917313,51.8670846 73.7575242,43.2246224 73.7575242,43.2246224 C73.7575242,43.2246224 42.4279541,39.1311485 42.4279541,24.9548019 C42.4279541,10.7784554 56.8358414,8.67324024 56.8358414,8.67324024"></path>
                    <path fill-rule="nonzero" fill="url(#linearGradient-4)" id="路径" d="M86.3884181,20.6274152 L81.1255456,20.6274152 C77.7468586,20.6409309 75.012219,23.362413 75.0020387,26.7214591 L75.0020387,32.1445426 L92.5119249,32.1445426 L92.5119249,26.7214591 C92.5017447,23.362413 89.7671051,20.6409309 86.3884181,20.6274152 Z"></path>
                    <path fill-rule="nonzero" fill="url(#linearGradient-5)" id="路径" d="M19.2651237,20.6274152 C15.8864367,20.6409309 13.1517971,23.362413 13.1416169,26.7214591 L13.1416169,97.6031918 C13.1280221,100.962226 10.3906174,103.680959 7.01191837,103.69108 L74.1352127,103.69108 C77.5128984,103.68094 80.2485202,100.961231 80.2587196,97.6031918 L80.2587196,26.7214591 C80.2722928,23.361417 83.0087173,20.6409095 86.3884181,20.6274152 L19.2651237,20.6274152 Z"></path>
                    <path fill-rule="nonzero" fill="url(#linearGradient-6)" id="路径" d="M68.0178974,97.6031918 L68.0178974,92.1677971 L0.888411495,92.1677971 L0.888411495,97.5908806 C0.898610918,100.948919 3.63423267,103.668629 7.01191837,103.678769 L74.1352127,103.678769 C70.7647537,103.6653 68.0348585,100.954031 68.0178974,97.6031918 L68.0178974,97.6031918 Z"></path>
                    <rect rx="1.66201197" height="3.32402394" width="51.5204254" y="32.7601026" x="20.9430513" fill-rule="nonzero" fill="#FFFFFF" id="矩形"></rect>
                    <rect rx="1.66201197" height="3.32402394" width="51.5204254" y="44.8435452" x="20.9430513" fill-rule="nonzero" fill="#FFFFFF" id="矩形"></rect>
                    <path fill-rule="nonzero" fill="#333333" id="路径" d="M77.825415,103.654146 C76.3384103,104.294212 75.0543274,105.324014 74.1104462,106.633457 C74.1104462,106.633457 74.0051888,107.919977 77.0019303,107.119749 C78.1002611,106.724143 79.141204,106.186001 80.0977376,105.519293 L80.0977376,103.672613 L77.825415,103.654146 Z"></path>
                    <path fill-rule="nonzero" fill="#333333" id="路径" d="M74.9586974,101.789 C73.4716927,102.429065 72.1876098,103.458867 71.2437287,104.76831 C71.2437287,104.76831 71.1384712,106.060986 74.1414043,105.254602 C75.2397352,104.858996 76.2806781,104.320854 77.2372116,103.654146 L77.2372116,101.807467 L74.9586974,101.789 Z"></path>
                    <path fill-rule="nonzero" fill="#FCD9CB" id="路径" d="M82.0233297,76.9573098 C82.0233297,76.9573098 80.6116416,77.923739 80.7850068,80.3490453 C80.8105255,80.9121029 81.0620808,81.4414733 81.4833582,81.8186489 C81.9046355,82.1958246 82.460449,82.3893029 83.0263713,82.3557709 L83.0263713,83.9562268 L85.6206579,83.6422913 L85.6206579,81.3154745 L87.2800106,79.1240809 L84.8900473,75.8246794 L82.0233297,76.9573098 Z"></path>
                    <path fill-rule="nonzero" fill="#666666" id="路径" d="M82.7353654,75.892391 C82.7353654,75.892391 86.1036038,74.5504702 87.2923938,76.815731 C87.2923938,76.815731 88.7474232,80.1151325 85.8930889,81.4016529 C85.8930889,81.4016529 84.9086222,81.6109433 85.7940231,80.8353377 C86.1721939,80.520208 86.3862387,80.0515958 86.3760348,79.5611285 C86.3760348,79.5611285 86.2831606,78.9024793 85.3358436,79.0563693 C85.3358436,79.0563693 85.5339752,76.4033058 82.98303,76.7911086 C82.98303,76.7911086 81.5775335,77.4066686 80.7911984,76.7172414 C80.7911984,76.7172414 80.3763603,76.2740382 80.6983242,76.0339698 C80.6983242,76.0339698 80.958372,75.9047022 80.9955217,76.2494158 C81.0202882,76.2494158 81.0822043,76.5571958 82.7353654,75.892391 Z"></path>
                    <path fill-rule="nonzero" fill="url(#linearGradient-7)" id="路径" d="M86.0293044,82.5342833 C85.6263776,83.1112388 84.9947862,83.4896517 84.2934425,83.5743111 C83.5920989,83.6589705 82.8877728,83.4418165 82.3576769,82.9774865 C80.9940228,83.3452796 79.8402188,84.2500601 79.1628038,85.4828156 L79.3795103,88.3020804 L88.9393633,97.6647478 L92.5057333,97.3015674 C92.5057333,97.3015674 92.0908952,90.0133371 90.3510514,86.2645768 C90.3510514,86.2645768 88.6855071,83.1067541 86.0293044,82.5342833 Z"></path>
                    <path fill-rule="nonzero" fill="#666666" id="路径" d="M81.0760127,90.1364491 C81.0760127,90.1364491 78.8841811,85.2796808 76.2094036,89.5639783 C76.2094036,89.5639783 73.8627816,93.1957823 74.9153561,102.219892 C75.6143832,102.630119 76.48246,102.630119 77.1814871,102.219892 L81.0760127,90.1364491 Z"></path>
                    <path fill-rule="nonzero" fill="#666666" id="路径" d="M89.2984769,97.4677686 C89.2984769,97.4677686 87.7691481,88.523682 82.822048,88.7637504 C82.822048,88.7637504 76.4137269,89.1700199 77.2495949,103.426389 C78.0325734,104.259433 79.2610333,104.506662 80.3082525,104.041949 C80.3082525,104.041949 80.5992584,96.4890282 83.496934,98.415731 C84.3765587,99.3413447 85.3403588,100.184143 86.3760348,100.933371 C88.6297826,102.392249 91.8060809,102.552294 91.9113383,97.2400114 L89.2984769,97.4677686 Z"></path>
                    <path fill-rule="nonzero" fill="#FCD9CB" id="路径" d="M86.9704298,89.7055571 L83.5650418,94.3099459 C83.5650418,94.3099459 82.2709943,94.3099459 78.9522889,91.7615275 C78.9522889,91.7615275 76.7790321,90.4442291 79.8191149,88.4067256 L79.1628038,85.5012824 C77.6153854,86.5249008 76.3967331,87.9693755 75.6521583,89.6624679 C75.0911361,90.8717003 75.3759682,92.3024812 76.3580023,93.2080935 C78.1962229,95.0586478 80.4817029,96.4088181 82.9954132,97.1292106 C83.9311232,97.6381674 85.1042551,97.3166151 85.6454243,96.4028498 C85.6454243,96.4028498 87.8620224,93.5035623 89.0755788,91.8907951 L86.9704298,89.7055571 Z"></path>
                    <polygon points="58.8481161 12.2865774 56.9349072 3.66258193 77.8439899 1.45887717" fill-rule="nonzero" fill="#D1D3D8" id="路径"></polygon>
                    <polygon points="77.8439899 1.45887717 61.2690375 5.6693075 58.8481161 12.2865774" fill-rule="nonzero" fill="#DFE1E6" id="路径"></polygon>
                    <polygon points="67.479227 10.0828726 61.2690375 5.6693075 77.8439899 1.45887717" fill-rule="nonzero" fill="#E9EBF0" id="路径"></polygon>
                    <polygon points="56.9349072 3.66258193 51.8949329 0.153889997 77.8439899 1.45887717" fill-rule="nonzero" fill="#E9EBF0" id="路径"></polygon>
                </g>
            </g>
        </g>
    </g>
</svg>